<?xml version="1.0" encoding="UTF-8"?>
<!DOCTYPE svg PUBLIC "-//W3C//DTD SVG 1.1//EN" "http://www.w3.org/Graphics/SVG/1.1/DTD/svg11.dtd">
<svg xmlns="http://www.w3.org/2000/svg" version="1.1" width="512px" height="512px" style="shape-rendering:geometricPrecision; text-rendering:geometricPrecision; image-rendering:optimizeQuality; fill-rule:evenodd; clip-rule:evenodd" xmlns:xlink="http://www.w3.org/1999/xlink">
<g><path style="opacity:0.971" fill="#000000" d="M 235.5,55.5 C 317.21,50.7733 380.71,82.1066 426,149.5C 456.779,201.733 463.779,257.066 447,315.5C 424.5,380.667 380.667,424.5 315.5,447C 246.95,466.155 184.617,454.155 128.5,411C 75.0972,364.839 50.9305,306.339 56,235.5C 65.3867,163.514 101.887,110.347 165.5,76C 187.848,65.3796 211.181,58.5463 235.5,55.5 Z M 254.5,95.5 C 323.095,98.6894 372.261,131.023 402,192.5C 425.679,254.75 416.346,311.417 374,362.5C 332.905,405.198 283.071,421.698 224.5,412C 154.804,394.638 112.637,350.804 98,280.5C 90.4218,214.514 113.255,162.014 166.5,123C 193.331,105.465 222.665,96.2983 254.5,95.5 Z"/></g>
<g><path style="opacity:0.961" fill="#000000" d="M 168.5,194.5 C 198.123,222.456 227.123,251.123 255.5,280.5C 284.167,252.167 312.833,223.833 341.5,195.5C 351.801,204.133 361.467,213.467 370.5,223.5C 332.5,262.167 294.167,300.5 255.5,338.5C 217.18,300.68 179.014,262.68 141,224.5C 140.333,223.833 140.333,223.167 141,222.5C 150.369,213.298 159.536,203.965 168.5,194.5 Z"/></g>
</svg>
